<?xml version="1.0" encoding="UTF-8" standalone="no"?>
<svg
   viewBox="0 0 640 512"
   version="1.1"
   id="svg1"
   sodipodi:docname="car-side-solid.svg"
   inkscape:version="1.3.2 (091e20ef0f, 2023-11-25)"
   xmlns:inkscape="http://www.inkscape.org/namespaces/inkscape"
   xmlns:sodipodi="http://sodipodi.sourceforge.net/DTD/sodipodi-0.dtd"
   xmlns="http://www.w3.org/2000/svg"
   xmlns:svg="http://www.w3.org/2000/svg">
  <defs
     id="defs1" />
  <sodipodi:namedview
     id="namedview1"
     pagecolor="#505050"
     bordercolor="#ffffff"
     borderopacity="1"
     inkscape:showpageshadow="0"
     inkscape:pageopacity="0"
     inkscape:pagecheckerboard="1"
     inkscape:deskcolor="#505050"
     inkscape:zoom="1.5527344"
     inkscape:cx="319.75849"
     inkscape:cy="256"
     inkscape:window-width="1920"
     inkscape:window-height="1001"
     inkscape:window-x="0"
     inkscape:window-y="45"
     inkscape:window-maximized="1"
     inkscape:current-layer="svg1" />
  <!--!Font Awesome Free 6.5.2 by @fontawesome - https://fontawesome.com License - https://fontawesome.com/license/free Copyright 2024 Fonticons, Inc.-->
  <path
     d="M171.3 96H224v96H111.3l30.4-75.9C146.5 104 158.2 96 171.3 96zM272 192V96h81.2c9.7 0 18.9 4.4 25 12l67.2 84H272zm256.2 1L428.2 68c-18.2-22.8-45.8-36-75-36H171.3c-39.3 0-74.6 23.9-89.1 60.3L40.6 196.4C16.8 205.8 0 228.9 0 256V368c0 17.7 14.3 32 32 32H65.3c7.6 45.4 47.1 80 94.7 80s87.1-34.6 94.7-80H385.3c7.6 45.4 47.1 80 94.7 80s87.1-34.6 94.7-80H608c17.7 0 32-14.3 32-32V320c0-65.2-48.8-119-111.8-127zM434.7 368a48 48 0 1 1 90.5 32 48 48 0 1 1 -90.5-32zM160 336a48 48 0 1 1 0 96 48 48 0 1 1 0-96z"
     id="path1"
     style="fill:#f7b731;fill-opacity:1" />
</svg>
