<svg width="529" height="513" viewBox="0 0 529 513" fill="none" xmlns="http://www.w3.org/2000/svg">
<path d="M283.748 22.3406L283.755 22.3559L283.762 22.3712L348.062 154.671L350.371 159.422L355.597 160.193L499.273 181.389C499.277 181.39 499.28 181.39 499.284 181.391C507.524 182.631 514.338 188.399 516.961 196.337C519.561 204.205 517.443 212.94 511.527 218.788L511.523 218.792L407.323 321.892L403.628 325.547L404.497 330.671L429.193 476.344C429.193 476.345 429.193 476.347 429.193 476.348C430.562 484.568 427.145 492.916 420.275 497.913C413.536 502.813 404.547 503.416 397.046 499.468C397.039 499.464 397.031 499.46 397.024 499.456L268.766 430.979L264.056 428.464L259.347 430.979L131.089 499.456C131.082 499.46 131.075 499.464 131.068 499.467C123.622 503.387 114.596 502.759 107.784 497.874C101.002 493.01 97.5463 484.612 98.9187 476.354C98.9192 476.351 98.9198 476.347 98.9204 476.344L123.517 330.665L124.381 325.544L120.69 321.892L16.4899 218.792L16.486 218.788C10.6164 212.986 8.50991 204.238 11.0759 196.263C13.5928 188.44 20.4331 182.64 28.7266 181.391C28.731 181.391 28.7354 181.39 28.7399 181.389L172.317 160.193L177.542 159.421L179.85 154.671L244.133 22.4067C244.136 22.4007 244.139 22.3947 244.142 22.3886C247.882 14.7875 255.516 10 263.956 10C272.452 10 280.13 14.8331 283.748 22.3406Z" stroke="#F7B731" stroke-width="20"/>
</svg>
